<svg width="43" height="43" viewBox="0 0 43 43" fill="none" xmlns="http://www.w3.org/2000/svg">
<path d="M42.5944 0.240285C42.3189 0.0198743 41.9883 -0.0352283 41.6577 0.0198745L15.2084 5.53015C14.7124 5.64035 14.3267 6.08117 14.3267 6.6322V29.1141C12.8389 27.461 10.6899 26.4692 8.26541 26.4692C3.69188 26.4692 0 30.1611 0 34.7346C0 39.3081 3.69188 43 8.26541 43C12.8389 43 16.5308 39.3081 16.5308 34.7346V15.1731L40.776 10.1037V23.5487C39.2882 21.8957 37.0841 20.9038 34.7147 20.9038C30.1412 20.9038 26.4493 24.5957 26.4493 29.1692C26.4493 33.7427 30.1412 37.4346 34.7147 37.4346C39.2882 37.4346 42.9801 33.7427 42.9801 29.1692V1.06683C42.9801 0.73621 42.8148 0.405593 42.5944 0.240285ZM8.26541 40.7408C4.90414 40.7408 2.20411 38.0408 2.20411 34.6795C2.20411 31.3182 4.90414 28.6182 8.26541 28.6182C11.6267 28.6182 14.3267 31.3182 14.3267 34.6795C14.3267 38.0408 11.6267 40.7408 8.26541 40.7408ZM34.7147 35.2305C31.3534 35.2305 28.6534 32.5305 28.6534 29.1692C28.6534 25.808 31.3534 23.1079 34.7147 23.1079C38.076 23.1079 40.776 25.808 40.776 29.1692C40.776 32.5305 38.076 35.2305 34.7147 35.2305ZM40.776 7.89956L16.5308 12.969V7.51385L40.776 2.44439V7.89956Z" fill="#FFD96D"/>
</svg>
