<svg width="40" height="40" viewBox="0 0 40 40" fill="none" xmlns="http://www.w3.org/2000/svg">
<g clip-path="url(#clip0_200_1845)">
<path d="M19.9904 2.02828e-05C19.9083 0.00132304 19.8273 0.0187824 19.752 0.0514012C19.6766 0.08402 19.6085 0.131159 19.5514 0.190127C19.4943 0.249094 19.4493 0.318734 19.4191 0.39507C19.3889 0.471406 19.3741 0.552941 19.3754 0.63502V4.14752C19.3754 4.31328 19.4413 4.47225 19.5585 4.58946C19.6757 4.70667 19.8346 4.77252 20.0004 4.77252H22.3417C22.7704 4.77252 23.0167 4.91127 23.1942 5.11252C23.3717 5.31252 23.4742 5.60252 23.4742 5.90377C23.4742 6.20377 23.3717 6.49627 23.1942 6.69627C23.0154 6.89627 22.7704 7.03627 22.3417 7.03627H17.6592C16.9179 7.03627 16.2817 7.33502 15.8742 7.79252C15.4826 8.2427 15.27 8.82095 15.2767 9.41752C15.2767 9.99502 15.4667 10.5813 15.8742 11.04C16.2817 11.4988 16.9179 11.7988 17.6592 11.7988H19.3754V15.2413H13.5579C12.2962 14.4836 10.8546 14.0775 9.38291 14.065C9.38207 14.065 9.38124 14.065 9.38041 14.065C4.82291 14.065 1.11666 17.7738 1.11666 22.3313C1.11666 22.3321 1.11666 22.3329 1.11666 22.3338C1.12041 23.65 1.52041 24.9163 2.12416 26.0813L0.571657 33.4688C-0.153343 36.235 1.58416 39.2863 4.50291 39.8638C7.22791 40.4938 9.93291 38.8113 10.6717 36.0038L12.2342 31.1013C12.8254 31.4113 13.4067 31.7725 14.0829 31.7725C15.1417 31.7713 16.1229 31.315 16.8879 30.5963H22.3267C23.0917 31.315 24.0717 31.7713 25.1304 31.7725C25.1308 31.7725 25.1312 31.7725 25.1317 31.7725C26.0792 31.7713 26.9404 31.3725 27.6692 30.7913L29.3342 36.03L29.3267 36.0013C30.0642 38.8125 32.7742 40.4963 35.5017 39.8638C38.4142 39.2863 40.1467 36.2438 39.4292 33.4813L37.8592 26C38.4304 24.855 38.8042 23.615 38.8042 22.3325C38.8012 20.1411 37.9293 18.0403 36.3797 16.4907C34.8302 14.9411 32.7293 14.0692 30.5379 14.0663C29.0637 14.0774 27.6194 14.4836 26.3554 15.2425H20.6254V11.175C20.6254 11.0093 20.5596 10.8503 20.4424 10.7331C20.3251 10.6159 20.1662 10.55 20.0004 10.55H17.6592C17.2304 10.55 16.9842 10.4125 16.8067 10.2113C16.6213 9.98872 16.522 9.70709 16.5267 9.41752C16.5267 9.11752 16.6292 8.82752 16.8067 8.62627C16.9854 8.42627 17.2304 8.28752 17.6592 8.28752H22.3417C23.0829 8.28752 23.7192 7.98752 24.1267 7.52752C24.5342 7.07002 24.7242 6.48252 24.7242 5.90502C24.7242 5.32627 24.5342 4.73877 24.1267 4.28002C23.7192 3.82252 23.0829 3.52377 22.3417 3.52377H20.6254V0.63502C20.6268 0.551258 20.6113 0.468079 20.5798 0.390427C20.5484 0.312774 20.5017 0.242234 20.4424 0.182997C20.3832 0.123761 20.3127 0.0770373 20.235 0.045604C20.1573 0.0141707 20.0742 -0.00133099 19.9904 2.02828e-05V2.02828e-05ZM9.38041 15.315C10.698 15.3176 11.9881 15.6914 13.1029 16.3938C13.2031 16.4574 13.3192 16.4912 13.4379 16.4913H26.4754C26.5928 16.4905 26.7076 16.4567 26.8067 16.3938C28.1228 15.5624 29.6784 15.1929 31.2278 15.3436C32.7773 15.4942 34.2325 16.1565 35.3638 17.2258C36.4952 18.2951 37.2384 19.7107 37.4761 21.2492C37.7138 22.7877 37.4325 24.3616 36.6767 25.7225C36.6051 25.8538 36.5829 26.0063 36.6142 26.1525L38.2104 33.7575C38.2127 33.7672 38.2152 33.7767 38.2179 33.7863C38.7617 35.855 37.4342 38.2163 35.2517 38.6425C35.2433 38.644 35.235 38.6457 35.2267 38.6475C33.1392 39.1375 31.1179 37.905 30.5354 35.6838C30.5324 35.6728 30.529 35.662 30.5254 35.6513L28.6604 29.7825C28.6205 29.6556 28.5412 29.5448 28.4339 29.4661C28.3267 29.3874 28.1972 29.345 28.0642 29.345H27.7567C27.6684 29.3453 27.5813 29.3643 27.5009 29.4007C27.4206 29.4371 27.3488 29.4901 27.2904 29.5563C27.0187 29.86 26.686 30.1031 26.3141 30.2696C25.9421 30.4361 25.5392 30.5223 25.1317 30.5225C24.7247 30.5218 24.3225 30.4354 23.9512 30.2689C23.5799 30.1024 23.2479 29.8596 22.9767 29.5563C22.9181 29.4904 22.8463 29.4376 22.766 29.4014C22.6856 29.3652 22.5985 29.3464 22.5104 29.3463H16.7067C16.6185 29.3464 16.5314 29.3652 16.4511 29.4014C16.3707 29.4376 16.2989 29.4904 16.2404 29.5563C15.7393 30.1159 15.0406 30.4592 14.2914 30.5137C13.5422 30.5683 12.801 30.3299 12.2242 29.8488C12.1457 29.783 12.0522 29.7375 11.952 29.7164C11.8518 29.6952 11.7479 29.699 11.6495 29.7274C11.5511 29.7558 11.4612 29.8079 11.3877 29.8792C11.3142 29.9505 11.2593 30.0388 11.2279 30.1363L9.47291 35.6513C9.47012 35.662 9.46762 35.6729 9.46541 35.6838C8.88291 37.905 6.86041 39.1375 4.77291 38.6475C4.76585 38.6457 4.75877 38.6441 4.75166 38.6425C2.56916 38.2163 1.23666 35.855 1.78041 33.7863C1.78313 33.7767 1.78564 33.7672 1.78791 33.7575L3.36666 26.24C3.3986 26.0904 3.37459 25.9343 3.29916 25.8013C2.69235 24.7452 2.37097 23.5493 2.36666 22.3313V22.3288C2.36567 21.4075 2.54637 20.4952 2.89842 19.6438C3.25046 18.7925 3.76694 18.019 4.41829 17.3675C5.06965 16.7161 5.84308 16.1995 6.69433 15.8473C7.54558 15.4951 8.45793 15.3142 9.37916 15.315H9.38041ZM30.5379 16.415C29.5454 16.415 28.7329 17.2388 28.7329 18.23C28.7329 19.2213 29.5454 20.0425 30.5379 20.0425C31.5292 20.0425 32.3417 19.2213 32.3417 18.23C32.3417 17.2388 31.5292 16.4163 30.5379 16.4163V16.415ZM9.37041 17.59C9.28833 17.5913 9.20731 17.6088 9.13198 17.6414C9.05665 17.674 8.98848 17.7212 8.93137 17.7801C8.87426 17.8391 8.82933 17.9087 8.79913 17.9851C8.76894 18.0614 8.75408 18.1429 8.75541 18.225V20.5563H6.45041C6.28465 20.5563 6.12568 20.6221 6.00847 20.7393C5.89125 20.8565 5.82541 21.0155 5.82541 21.1813C5.82541 21.347 5.89125 21.506 6.00847 21.6232C6.12568 21.7404 6.28465 21.8063 6.45041 21.8063H8.75541V24.1388C8.75541 24.3045 8.82125 24.4635 8.93846 24.5807C9.05568 24.6979 9.21465 24.7638 9.38041 24.7638C9.54617 24.7638 9.70514 24.6979 9.82235 24.5807C9.93956 24.4635 10.0054 24.3045 10.0054 24.1388V21.8063H12.3104C12.4762 21.8063 12.6351 21.7404 12.7523 21.6232C12.8696 21.506 12.9354 21.347 12.9354 21.1813C12.9354 21.0155 12.8696 20.8565 12.7523 20.7393C12.6351 20.6221 12.4762 20.5563 12.3104 20.5563H10.0054V18.225C10.0068 18.1413 9.99126 18.0581 9.95982 17.9804C9.92839 17.9028 9.88167 17.8322 9.82243 17.773C9.76319 17.7138 9.69265 17.667 9.615 17.6356C9.53735 17.6042 9.45417 17.5887 9.37041 17.59V17.59ZM30.5379 17.665C30.6117 17.6645 30.6849 17.6788 30.7531 17.7072C30.8212 17.7355 30.883 17.7773 30.9347 17.83C30.9863 17.8828 31.0269 17.9453 31.0538 18.0141C31.0808 18.0828 31.0937 18.1562 31.0917 18.23C31.0917 18.5513 30.8479 18.7925 30.5379 18.7925C30.4641 18.7934 30.391 18.7794 30.3228 18.7513C30.2545 18.7233 30.1927 18.6817 30.1409 18.6292C30.0891 18.5767 30.0484 18.5143 30.0212 18.4457C29.9941 18.3771 29.9811 18.3038 29.9829 18.23C29.9811 18.1562 29.9941 18.0828 30.0212 18.0141C30.0483 17.9455 30.089 17.883 30.1408 17.8304C30.1926 17.7778 30.2544 17.7361 30.3227 17.7079C30.3909 17.6797 30.4641 17.6656 30.5379 17.6663V17.665ZM27.6029 19.3775C26.6117 19.3775 25.7992 20.2 25.7992 21.1913C25.7992 22.1825 26.6117 23.0038 27.6029 23.0038C28.5942 23.0038 29.4067 22.1825 29.4067 21.1913C29.4067 20.2 28.5942 19.3775 27.6029 19.3775ZM33.4717 19.3775C32.4804 19.3775 31.6704 20.2 31.6704 21.1913C31.6704 22.1825 32.4804 23.0038 33.4717 23.0038C34.4642 23.0038 35.2767 22.1825 35.2767 21.1913C35.2767 20.2 34.4642 19.3775 33.4717 19.3775ZM27.6029 20.6275C27.6766 20.627 27.7497 20.6413 27.8178 20.6696C27.8858 20.6978 27.9475 20.7395 27.9992 20.7921C28.0509 20.8447 28.0914 20.9071 28.1185 20.9757C28.1455 21.0443 28.1585 21.1176 28.1567 21.1913C28.1567 21.5125 27.9142 21.7538 27.6029 21.7538C27.5293 21.7545 27.4562 21.7403 27.3881 21.7122C27.3201 21.6841 27.2584 21.6425 27.2067 21.59C27.155 21.5375 27.1144 21.4752 27.0874 21.4067C27.0603 21.3382 27.0473 21.2649 27.0492 21.1913C27.0473 21.1176 27.0603 21.0443 27.0874 20.9757C27.1144 20.9071 27.155 20.8447 27.2066 20.7921C27.2583 20.7395 27.32 20.6978 27.388 20.6696C27.4561 20.6413 27.5292 20.627 27.6029 20.6275V20.6275ZM33.4717 20.6275C33.5455 20.6268 33.6187 20.641 33.6869 20.6692C33.7551 20.6974 33.817 20.739 33.8688 20.7916C33.9206 20.8442 33.9612 20.9067 33.9884 20.9754C34.0155 21.0441 34.0285 21.1175 34.0267 21.1913C34.0267 21.5125 33.7829 21.7538 33.4717 21.7538C33.3981 21.7545 33.3252 21.7403 33.2572 21.7122C33.1893 21.684 33.1278 21.6424 33.0763 21.5899C33.0248 21.5374 32.9845 21.475 32.9577 21.4065C32.9309 21.338 32.9182 21.2648 32.9204 21.1913C32.9204 20.87 33.1617 20.6275 33.4717 20.6275ZM30.5379 22.34C29.5454 22.34 28.7329 23.1613 28.7329 24.1525C28.7329 25.1438 29.5454 25.965 30.5379 25.965C31.5292 25.965 32.3417 25.1438 32.3417 24.1525C32.3417 23.1613 31.5292 22.34 30.5379 22.34ZM30.5379 23.59C30.6115 23.5895 30.6845 23.6038 30.7525 23.632C30.8205 23.6601 30.8821 23.7017 30.9337 23.7542C30.9854 23.8066 31.026 23.8689 31.0531 23.9373C31.0802 24.0058 31.0933 24.0789 31.0917 24.1525C31.0917 24.4738 30.8479 24.715 30.5379 24.715C30.4641 24.7159 30.391 24.7019 30.3228 24.6738C30.2545 24.6458 30.1927 24.6042 30.1409 24.5517C30.0891 24.4992 30.0484 24.4368 30.0212 24.3682C29.9941 24.2996 29.9811 24.2263 29.9829 24.1525C29.9812 24.0788 29.9944 24.0055 30.0216 23.937C30.0488 23.8685 30.0895 23.8062 30.1413 23.7537C30.193 23.7012 30.2548 23.6597 30.323 23.6316C30.3911 23.6035 30.4642 23.5893 30.5379 23.59V23.59ZM14.0829 24.6438C13.4503 24.6471 12.8445 24.9 12.3974 25.3476C11.9503 25.7951 11.698 26.4011 11.6954 27.0338C11.6954 28.3463 12.7704 29.4213 14.0829 29.4213C15.3942 29.4213 16.4704 28.3463 16.4704 27.0338C16.4678 26.4011 16.2155 25.7951 15.7684 25.3476C15.3213 24.9 14.7155 24.6471 14.0829 24.6438V24.6438ZM25.2492 24.6438C24.6165 24.6471 24.0108 24.9 23.5637 25.3476C23.1166 25.7951 22.8643 26.4011 22.8617 27.0338C22.8617 28.3463 23.9379 29.4213 25.2492 29.4213C26.5617 29.4213 27.6367 28.3463 27.6367 27.0338C27.634 26.4011 27.3817 25.7951 26.9346 25.3476C26.4875 24.9 25.8818 24.6471 25.2492 24.6438V24.6438ZM14.0829 25.8938C14.7179 25.8938 15.2204 26.3975 15.2204 27.0338C15.2204 27.67 14.7179 28.1713 14.0829 28.1713C13.9332 28.1726 13.7846 28.1441 13.646 28.0874C13.5074 28.0307 13.3815 27.947 13.2756 27.8411C13.1697 27.7352 13.086 27.6093 13.0293 27.4706C12.9726 27.332 12.9441 27.1835 12.9454 27.0338C12.9454 26.3975 13.4454 25.8938 14.0829 25.8938ZM25.2492 25.8938C25.8854 25.8938 26.3867 26.3975 26.3867 27.0338C26.3867 27.67 25.8854 28.1713 25.2492 28.1713C25.0994 28.1726 24.9509 28.1441 24.8123 28.0874C24.6737 28.0307 24.5477 27.947 24.4419 27.8411C24.336 27.7352 24.2522 27.6093 24.1955 27.4706C24.1388 27.332 24.1103 27.1835 24.1117 27.0338C24.1117 26.3975 24.6129 25.8938 25.2492 25.8938Z" fill="#FFD96D"/>
</g>
<defs>
<clipPath id="clip0_200_1845">
<rect width="40" height="40" fill="white"/>
</clipPath>
</defs>
</svg>
