<svg width="40" height="40" viewBox="0 0 40 40" fill="none" xmlns="http://www.w3.org/2000/svg">
<path d="M13.75 3.75V8.75" stroke="#FFD96D" stroke-width="1.25" stroke-linecap="round" stroke-linejoin="round"/>
<path d="M18.75 3.75V8.75" stroke="#FFD96D" stroke-width="1.25" stroke-linecap="round" stroke-linejoin="round"/>
<path d="M23.75 3.75V8.75" stroke="#FFD96D" stroke-width="1.25" stroke-linecap="round" stroke-linejoin="round"/>
<path d="M5 33.75H32.5" stroke="#FFD96D" stroke-width="1.25" stroke-linecap="round" stroke-linejoin="round"/>
<path d="M13.0151 33.7506C10.6229 32.6525 8.59606 30.8909 7.17531 28.6751C5.75456 26.4592 4.99957 23.8822 5 21.25V13.75H32.5V21.25C32.5004 23.8822 31.7454 26.4593 30.3247 28.6751C28.9039 30.891 26.8771 32.6525 24.4848 33.7506" stroke="#FFD96D" stroke-width="1.25" stroke-linecap="round" stroke-linejoin="round"/>
<path d="M32.5001 13.75C33.8261 13.75 35.0979 14.2768 36.0356 15.2145C36.9733 16.1521 37.5001 17.4239 37.5001 18.75V20C37.5001 21.3261 36.9733 22.5979 36.0356 23.5355C35.0979 24.4732 33.8261 25 32.5001 25H31.9722" stroke="#FFD96D" stroke-width="1.25" stroke-linecap="round" stroke-linejoin="round"/>
</svg>
