<svg width="40" height="40" viewBox="0 0 40 40" fill="none" xmlns="http://www.w3.org/2000/svg">
<g clip-path="url(#clip0_200_1849)">
<path d="M6.66667 16.6667C6.0074 16.6667 5.36293 16.8622 4.81477 17.2284C4.2666 17.5947 3.83936 18.1153 3.58707 18.7244C3.33478 19.3335 3.26877 20.0037 3.39738 20.6503C3.526 21.2969 3.84347 21.8908 4.30964 22.357C4.77582 22.8232 5.36976 23.1407 6.01637 23.2693C6.66297 23.3979 7.33319 23.3319 7.94228 23.0796C8.55137 22.8273 9.07196 22.4001 9.43823 21.8519C9.8045 21.3037 10 20.6593 10 20C10 19.1159 9.64881 18.2681 9.02369 17.643C8.39857 17.0179 7.55072 16.6667 6.66667 16.6667ZM6.66667 21.6667C6.33703 21.6667 6.0148 21.5689 5.74072 21.3858C5.46663 21.2026 5.25301 20.9423 5.12687 20.6378C5.00072 20.3333 4.96772 19.9981 5.03202 19.6748C5.09633 19.3515 5.25507 19.0546 5.48816 18.8215C5.72124 18.5884 6.01821 18.4297 6.34152 18.3654C6.66482 18.301 6.99993 18.3341 7.30447 18.4602C7.60902 18.5863 7.86931 18.8 8.05245 19.074C8.23558 19.3481 8.33333 19.6704 8.33333 20C8.33333 20.442 8.15774 20.8659 7.84518 21.1785C7.53262 21.4911 7.10869 21.6667 6.66667 21.6667ZM20.8333 16.6667C19.0203 16.6667 17.2481 17.2043 15.7406 18.2115C14.2332 19.2188 13.0582 20.6504 12.3644 22.3254C11.6706 24.0004 11.4891 25.8435 11.8428 27.6217C12.1965 29.3998 13.0695 31.0332 14.3515 32.3151C15.6335 33.5971 17.2668 34.4702 19.045 34.8239C20.8232 35.1776 22.6663 34.996 24.3413 34.3022C26.0163 33.6084 27.4479 32.4335 28.4551 30.9261C29.4624 29.4186 30 27.6463 30 25.8333C29.9956 23.4035 29.0284 21.0745 27.3103 19.3564C25.5921 17.6383 23.2631 16.6711 20.8333 16.6667V16.6667ZM20.8333 33.3333C19.35 33.3333 17.8999 32.8935 16.6666 32.0694C15.4332 31.2452 14.4719 30.0739 13.9042 28.7035C13.3366 27.333 13.1881 25.825 13.4774 24.3702C13.7668 22.9153 14.4811 21.5789 15.53 20.53C16.5789 19.4811 17.9153 18.7668 19.3702 18.4774C20.825 18.1881 22.333 18.3366 23.7035 18.9042C25.0739 19.4719 26.2452 20.4332 27.0694 21.6666C27.8935 22.8999 28.3333 24.35 28.3333 25.8333C28.3333 26.8182 28.1393 27.7935 27.7624 28.7035C27.3855 29.6134 26.8331 30.4402 26.1366 31.1366C25.4402 31.8331 24.6134 32.3855 23.7035 32.7624C22.7935 33.1393 21.8182 33.3333 20.8333 33.3333ZM37.5 13.3333H36.6667V12.5C36.6667 11.837 36.4033 11.2011 35.9344 10.7322C35.4656 10.2634 34.8297 10 34.1667 10H32.5C31.837 10 31.2011 10.2634 30.7322 10.7322C30.2634 11.2011 30 11.837 30 12.5V13.3333H28.7C28.5267 13.332 28.3582 13.2768 28.2178 13.1752C28.0774 13.0736 27.9721 12.9308 27.9167 12.7667L27 10C26.8271 9.51102 26.5065 9.08792 26.0824 8.7893C25.6584 8.49068 25.152 8.33133 24.6333 8.33333H17.0333C16.5147 8.33133 16.0083 8.49068 15.5842 8.7893C15.1602 9.08792 14.8395 9.51102 14.6667 10L13.75 12.7667C13.6946 12.9308 13.5893 13.0736 13.4489 13.1752C13.3085 13.2768 13.1399 13.332 12.9667 13.3333H11.6667V12.5C11.6667 11.837 11.4033 11.2011 10.9344 10.7322C10.4656 10.2634 9.82971 10 9.16667 10H5.83333C5.17029 10 4.53441 10.2634 4.06557 10.7322C3.59673 11.2011 3.33333 11.837 3.33333 12.5V13.3333H2.5C1.83696 13.3333 1.20107 13.5967 0.732233 14.0656C0.263392 14.5344 0 15.1703 0 15.8333L0 35.8333C0 36.4964 0.263392 37.1323 0.732233 37.6011C1.20107 38.0699 1.83696 38.3333 2.5 38.3333H37.5C38.163 38.3333 38.7989 38.0699 39.2678 37.6011C39.7366 37.1323 40 36.4964 40 35.8333V15.8333C40 15.1703 39.7366 14.5344 39.2678 14.0656C38.7989 13.5967 38.163 13.3333 37.5 13.3333V13.3333ZM31.6667 12.5C31.6667 12.279 31.7545 12.067 31.9107 11.9107C32.067 11.7545 32.279 11.6667 32.5 11.6667H34.1667C34.3877 11.6667 34.5996 11.7545 34.7559 11.9107C34.9122 12.067 35 12.279 35 12.5V13.3333H31.6667V12.5ZM5 12.5C5 12.279 5.0878 12.067 5.24408 11.9107C5.40036 11.7545 5.61232 11.6667 5.83333 11.6667H9.16667C9.38768 11.6667 9.59964 11.7545 9.75592 11.9107C9.9122 12.067 10 12.279 10 12.5V13.3333H5V12.5ZM38.3333 35.8333C38.3333 36.0543 38.2455 36.2663 38.0893 36.4226C37.933 36.5789 37.721 36.6667 37.5 36.6667H2.5C2.27899 36.6667 2.06702 36.5789 1.91074 36.4226C1.75446 36.2663 1.66667 36.0543 1.66667 35.8333V15.8333C1.66667 15.6123 1.75446 15.4004 1.91074 15.2441C2.06702 15.0878 2.27899 15 2.5 15H12.9667C13.4853 15.002 13.9917 14.8426 14.4158 14.544C14.8398 14.2454 15.1605 13.8223 15.3333 13.3333L16.2333 10.6167C16.2808 10.4405 16.3847 10.2847 16.5293 10.1733C16.6738 10.0619 16.8509 10.001 17.0333 10H24.6333C24.8066 10.0013 24.9752 10.0566 25.1156 10.1581C25.256 10.2597 25.3612 10.4025 25.4167 10.5667L26.3333 13.3333C26.5062 13.8223 26.8269 14.2454 27.2509 14.544C27.675 14.8426 28.1814 15.002 28.7 15H37.5C37.721 15 37.933 15.0878 38.0893 15.2441C38.2455 15.4004 38.3333 15.6123 38.3333 15.8333V35.8333ZM19.1667 13.3333H22.5C22.721 13.3333 22.933 13.2455 23.0893 13.0893C23.2455 12.933 23.3333 12.721 23.3333 12.5C23.3333 12.279 23.2455 12.067 23.0893 11.9107C22.933 11.7545 22.721 11.6667 22.5 11.6667H19.1667C18.9457 11.6667 18.7337 11.7545 18.5774 11.9107C18.4211 12.067 18.3333 12.279 18.3333 12.5C18.3333 12.721 18.4211 12.933 18.5774 13.0893C18.7337 13.2455 18.9457 13.3333 19.1667 13.3333ZM20.8333 20C19.6796 20 18.5518 20.3421 17.5925 20.9831C16.6332 21.6241 15.8855 22.5351 15.444 23.601C15.0025 24.6669 14.887 25.8398 15.1121 26.9714C15.3372 28.1029 15.8927 29.1423 16.7085 29.9581C17.5243 30.7739 18.5637 31.3295 19.6953 31.5546C20.8269 31.7797 21.9998 31.6641 23.0657 31.2226C24.1316 30.7811 25.0426 30.0334 25.6836 29.0742C26.3245 28.1149 26.6667 26.9871 26.6667 25.8333C26.6667 24.2862 26.0521 22.8025 24.9581 21.7085C23.8642 20.6146 22.3804 20 20.8333 20ZM20.8333 30C20.0092 30 19.2037 29.7556 18.5185 29.2978C17.8333 28.84 17.2992 28.1892 16.9838 27.4278C16.6685 26.6665 16.586 25.8287 16.7467 25.0205C16.9075 24.2122 17.3043 23.4698 17.8871 22.8871C18.4698 22.3043 19.2122 21.9075 20.0205 21.7467C20.8287 21.586 21.6665 21.6685 22.4278 21.9838C23.1892 22.2992 23.84 22.8333 24.2978 23.5185C24.7556 24.2037 25 25.0092 25 25.8333C25 26.9384 24.561 27.9982 23.7796 28.7796C22.9982 29.561 21.9384 30 20.8333 30ZM32.5 16.6667C32.3352 16.6667 32.1741 16.7155 32.037 16.8071C31.9 16.8987 31.7932 17.0288 31.7301 17.1811C31.667 17.3334 31.6505 17.5009 31.6827 17.6626C31.7148 17.8242 31.7942 17.9727 31.9107 18.0893C32.0273 18.2058 32.1758 18.2852 32.3374 18.3173C32.4991 18.3495 32.6666 18.333 32.8189 18.2699C32.9712 18.2068 33.1013 18.1 33.1929 17.963C33.2845 17.8259 33.3333 17.6648 33.3333 17.5C33.3333 17.279 33.2455 17.067 33.0893 16.9107C32.933 16.7545 32.721 16.6667 32.5 16.6667Z" fill="#FFD96D"/>
</g>
<defs>
<clipPath id="clip0_200_1849">
<rect width="40" height="40" fill="white"/>
</clipPath>
</defs>
</svg>
