<svg width="40" height="40" viewBox="0 0 40 40" fill="none" xmlns="http://www.w3.org/2000/svg">
<path d="M32.5 2.5H9.375C8.38044 2.5 7.42661 2.89509 6.72335 3.59835C6.02009 4.30161 5.625 5.25544 5.625 6.25V34.375C5.65744 35.2184 6.01669 36.016 6.62674 36.5992C7.23678 37.1825 8.04979 37.5055 8.89375 37.5H20.625C20.7908 37.5 20.9497 37.4342 21.0669 37.3169C21.1842 37.1997 21.25 37.0408 21.25 36.875C21.25 36.7092 21.1842 36.5503 21.0669 36.4331C20.9497 36.3158 20.7908 36.25 20.625 36.25H8.89375C8.38018 36.2589 7.88311 36.0686 7.50676 35.7191C7.13041 35.3695 6.904 34.8878 6.875 34.375V34.2062C6.88384 34.0791 6.9069 33.9533 6.94375 33.8313C6.96536 33.7674 6.9904 33.7049 7.01875 33.6438C7.01875 33.5938 7.0625 33.5437 7.08125 33.5C7.17169 33.3398 7.28079 33.1908 7.40625 33.0562C7.5819 32.8787 7.79124 32.7381 8.022 32.6425C8.25275 32.547 8.50026 32.4986 8.75 32.5H32.5C32.6177 32.5002 32.735 32.4876 32.85 32.4625H32.9625L33.125 32.4187V33.125C33.125 33.2908 33.0592 33.4497 32.9419 33.5669C32.8247 33.6842 32.6658 33.75 32.5 33.75H8.75C8.58424 33.75 8.42527 33.8158 8.30806 33.9331C8.19085 34.0503 8.125 34.2092 8.125 34.375C8.125 34.5408 8.19085 34.6997 8.30806 34.8169C8.42527 34.9342 8.58424 35 8.75 35H32.5C32.7132 34.9983 32.9246 34.9603 33.125 34.8875V35.625C33.125 35.7908 33.0592 35.9497 32.9419 36.0669C32.8247 36.1842 32.6658 36.25 32.5 36.25H26.25C26.0842 36.25 25.9253 36.3158 25.8081 36.4331C25.6908 36.5503 25.625 36.7092 25.625 36.875C25.625 37.0408 25.6908 37.1997 25.8081 37.3169C25.9253 37.4342 26.0842 37.5 26.25 37.5H32.5C32.9973 37.5 33.4742 37.3025 33.8258 36.9508C34.1775 36.5992 34.375 36.1223 34.375 35.625V4.375C34.375 3.87772 34.1775 3.40081 33.8258 3.04917C33.4742 2.69754 32.9973 2.5 32.5 2.5V2.5ZM8.1875 31.3063L8.0125 31.35C7.88712 31.3789 7.7639 31.4165 7.64375 31.4625C7.58125 31.4625 7.51875 31.5125 7.45625 31.5375C7.3447 31.5896 7.23619 31.6481 7.13125 31.7125L6.9625 31.8187L6.875 31.875V6.25C6.875 5.58696 7.13839 4.95107 7.60723 4.48223C8.07607 4.01339 8.71196 3.75 9.375 3.75V31.25H8.75C8.56107 31.2495 8.37259 31.2684 8.1875 31.3063V31.3063ZM10.625 31.25V3.75H32.5C32.6658 3.75 32.8247 3.81585 32.9419 3.93306C33.0592 4.05027 33.125 4.20924 33.125 4.375V30.625C33.125 30.7908 33.0592 30.9497 32.9419 31.0669C32.8247 31.1842 32.6658 31.25 32.5 31.25H10.625Z" fill="#FFD96D"/>
<path d="M28.75 8.75H15C14.8342 8.75 14.6753 8.81585 14.5581 8.93306C14.4408 9.05027 14.375 9.20924 14.375 9.375V13.75C14.375 13.9158 14.4408 14.0747 14.5581 14.1919C14.6753 14.3092 14.8342 14.375 15 14.375H28.75C28.9158 14.375 29.0747 14.3092 29.1919 14.1919C29.3092 14.0747 29.375 13.9158 29.375 13.75V9.375C29.375 9.20924 29.3092 9.05027 29.1919 8.93306C29.0747 8.81585 28.9158 8.75 28.75 8.75ZM28.125 13.125H15.625V10H28.125V13.125ZM27.5 23.75H16.25C16.0842 23.75 15.9253 23.8158 15.8081 23.9331C15.6908 24.0503 15.625 24.2092 15.625 24.375C15.625 24.5408 15.6908 24.6997 15.8081 24.8169C15.9253 24.9342 16.0842 25 16.25 25H27.5C27.6658 25 27.8247 24.9342 27.9419 24.8169C28.0592 24.6997 28.125 24.5408 28.125 24.375C28.125 24.2092 28.0592 24.0503 27.9419 23.9331C27.8247 23.8158 27.6658 23.75 27.5 23.75ZM27.5 26.875H16.25C16.0842 26.875 15.9253 26.9408 15.8081 27.0581C15.6908 27.1753 15.625 27.3342 15.625 27.5C15.625 27.6658 15.6908 27.8247 15.8081 27.9419C15.9253 28.0592 16.0842 28.125 16.25 28.125H27.5C27.6658 28.125 27.8247 28.0592 27.9419 27.9419C28.0592 27.8247 28.125 27.6658 28.125 27.5C28.125 27.3342 28.0592 27.1753 27.9419 27.0581C27.8247 26.9408 27.6658 26.875 27.5 26.875ZM23.75 36.25H23.125C22.9592 36.25 22.8003 36.3158 22.6831 36.4331C22.5658 36.5503 22.5 36.7092 22.5 36.875C22.5 37.0408 22.5658 37.1997 22.6831 37.3169C22.8003 37.4342 22.9592 37.5 23.125 37.5H23.75C23.9158 37.5 24.0747 37.4342 24.1919 37.3169C24.3092 37.1997 24.375 37.0408 24.375 36.875C24.375 36.7092 24.3092 36.5503 24.1919 36.4331C24.0747 36.3158 23.9158 36.25 23.75 36.25Z" fill="#FFD96D"/>
</svg>
