<svg width="40" height="40" viewBox="0 0 40 40" fill="none" xmlns="http://www.w3.org/2000/svg">
<path fill-rule="evenodd" clip-rule="evenodd" d="M35.833 35H4.16634C3.28229 35 2.43444 34.6488 1.80932 34.0237C1.1842 33.3986 0.833008 32.5507 0.833008 31.6667V8.33333C0.833008 7.44928 1.1842 6.60143 1.80932 5.97631C2.43444 5.35119 3.28229 5 4.16634 5H35.833C36.7171 5 37.5649 5.35119 38.19 5.97631C38.8152 6.60143 39.1663 7.44928 39.1663 8.33333V31.6667C39.1663 32.5507 38.8152 33.3986 38.19 34.0237C37.5649 34.6488 36.7171 35 35.833 35ZM9.99967 6.66667H4.16634C3.72431 6.66667 3.30039 6.84226 2.98783 7.15482C2.67527 7.46738 2.49967 7.89131 2.49967 8.33333V10H9.99967V6.66667ZM19.1663 6.66667H11.6663V10H19.1663V6.66667ZM28.333 6.66667H20.833V10H28.333V6.66667ZM37.4997 8.33333C37.4997 7.89131 37.3241 7.46738 37.0115 7.15482C36.699 6.84226 36.275 6.66667 35.833 6.66667H29.9997V10H37.4997V8.33333ZM37.4997 11.6667H2.49967V28.3333H37.4997V11.6667ZM37.4997 30H29.9997V33.3333H28.333V30H20.833V33.3333H19.1663V30H11.6663V33.3333H9.99967V30H2.49967V31.6667C2.49967 32.1087 2.67527 32.5326 2.98783 32.8452C3.30039 33.1577 3.72431 33.3333 4.16634 33.3333H35.833C36.275 33.3333 36.699 33.1577 37.0115 32.8452C37.3241 32.5326 37.4997 32.1087 37.4997 31.6667V30ZM18.0172 24.8042C17.8725 24.9272 17.6896 24.9964 17.4997 25C17.2787 25 17.0667 24.9122 16.9104 24.7559C16.7541 24.5996 16.6663 24.3877 16.6663 24.1667V15.8333C16.6663 15.6123 16.7541 15.4004 16.9104 15.2441C17.0667 15.0878 17.2787 15 17.4997 15C17.6772 15 17.833 15.0683 17.9688 15.1633L24.4447 19.2233C24.6063 19.2793 24.7465 19.3841 24.8459 19.5232C24.9453 19.6624 24.9991 19.829 24.9997 20C24.9982 20.1276 24.9669 20.253 24.9083 20.3663C24.8497 20.4796 24.7654 20.5776 24.6622 20.6525L18.0172 24.8042Z" fill="#FFD96D"/>
</svg>
