<svg width="40" height="39" viewBox="0 0 40 39" fill="none" xmlns="http://www.w3.org/2000/svg">
<g clip-path="url(#clip0_200_1854)">
<path d="M19.4538 33.306L6.62278 20.592C6.07678 20.085 5.64778 19.5 5.25778 18.876C3.15178 15.405 3.69778 10.959 6.62278 8.07302C8.29978 6.39602 10.5618 5.46002 12.9408 5.46002C16.6848 5.46002 19.0248 7.64402 19.9998 8.89202C20.9748 7.64402 23.3148 5.46002 27.0588 5.46002C29.4378 5.46002 31.6998 6.39602 33.3768 8.07302C36.2628 10.959 36.8478 15.405 34.7418 18.876C34.3518 19.5 33.9228 20.085 33.3768 20.592L20.5458 33.306C20.2338 33.618 19.7658 33.618 19.4538 33.306ZM12.9408 7.02002C10.9518 7.02002 9.11878 7.80002 7.71478 9.16502C5.33578 11.544 4.86778 15.21 6.58378 18.057C6.89578 18.564 7.28578 19.071 7.71478 19.5L19.9998 31.668L32.2848 19.5C32.7138 19.071 33.1038 18.603 33.4158 18.057C35.1318 15.171 34.7028 11.505 32.2848 9.16502C30.8808 7.80002 29.0088 7.02002 27.0588 7.02002C24.2508 7.02002 21.9108 8.54102 20.6628 10.647C20.3508 11.154 19.6098 11.154 19.2978 10.647C18.0888 8.54102 15.7488 7.02002 12.9408 7.02002V7.02002Z" fill="#FFD96D"/>
<path d="M368.66 -144.3V512.46H-327.1V-144.3H368.66ZM371.78 -147.42H-330.22V515.58H371.78V-147.42Z" fill="#0000FF"/>
</g>
<defs>
<clipPath id="clip0_200_1854">
<rect width="39" height="39" fill="white" transform="translate(0.5)"/>
</clipPath>
</defs>
</svg>
